<?xml version="1.0" encoding="UTF-8" standalone="no"?>
<svg width="41px" height="32px" viewBox="0 0 41 32" version="1.1" xmlns="http://www.w3.org/2000/svg" xmlns:xlink="http://www.w3.org/1999/xlink" xmlns:sketch="http://www.bohemiancoding.com/sketch/ns">
    <!-- Generator: Sketch 3.3.3 (12072) - http://www.bohemiancoding.com/sketch -->
    <title>New Build/build-pricetag-32</title>
    <desc>Created with Sketch.</desc>
    <defs></defs>
    <g id="icons" stroke="none" stroke-width="1" fill="none" fill-rule="evenodd" sketch:type="MSPage">
        <g id="New-Build/build-pricetag-32" sketch:type="MSArtboardGroup" fill="#C9CDCF">
            <g id="Form_PricingTable" sketch:type="MSLayerGroup" transform="translate(0.000000, 5.000000)">
                <path d="M0,0 L0,22 L41,22 L41,0 L0,0 L0,0 Z M28,2 L39,2 L39,5 L28,5 L28,2 L28,2 Z M26,2 L26,5 L15,5 L15,2 L26,2 L26,2 Z M13,5 L2,5 L2,2 L13,2 L13,5 L13,5 Z M2,20 L2,7 L13,7 L13,20 L2,20 L2,20 Z M15,20 L15,7 L26,7 L26,20 L15,20 L15,20 Z M28,7 L39,7 L39,20 L28,20 L28,7 L28,7 Z M34.3,12.9 L34.3,10.9 C34.9,11 35.4,11.2 35.7,11.6 L36.2,11.1 C35.7,10.6 35.1,10.3 34.3,10.3 L34.3,9.4 L33.7,9.4 L33.7,10.2 C32.6,10.3 31.7,11 31.7,11.9 C31.7,13 32.7,13.4 33.7,13.6 L33.7,15.9 C33,15.8 32.4,15.4 32,15 L31.5,15.6 C32,16.1 32.7,16.5 33.7,16.6 L33.7,17.4 L34.3,17.4 L34.3,16.6 C35.8,16.5 36.4,15.6 36.4,14.8 C36.4,13.5 35.3,13.2 34.3,12.9 L34.3,12.9 Z M33.7,12.7 C33.1,12.5 32.5,12.3 32.5,11.7 C32.5,11.2 33,10.8 33.7,10.7 L33.7,12.7 L33.7,12.7 Z M34.4,15.8 L34.4,13.7 C35.1,13.9 35.6,14.2 35.6,14.7 C35.6,15.2 35.3,15.7 34.4,15.8 L34.4,15.8 Z M7.8,12.9 L7.8,10.9 C8.4,11 8.9,11.2 9.2,11.6 L9.8,11 C9.3,10.5 8.7,10.2 7.9,10.2 L7.9,9.4 L7.3,9.4 L7.3,10.2 C6.2,10.3 5.3,11 5.3,11.9 C5.3,13 6.3,13.4 7.3,13.6 L7.3,15.9 C6.6,15.8 5.9,15.4 5.6,15 L5,15.6 C5.5,16.1 6.2,16.5 7.2,16.6 L7.2,17.4 L7.8,17.4 L7.8,16.6 C9.3,16.5 9.9,15.6 9.9,14.8 C9.9,13.5 8.8,13.2 7.8,12.9 L7.8,12.9 Z M7.3,12.7 C6.6,12.5 6.1,12.3 6.1,11.8 C6.1,11.3 6.6,10.8 7.3,10.8 L7.3,12.7 L7.3,12.7 Z M7.8,15.8 L7.8,13.7 C8.5,13.9 9,14.2 9,14.7 C9.1,15.2 8.8,15.7 7.8,15.8 L7.8,15.8 Z M20.6,12.9 L20.6,10.9 C21.2,11 21.7,11.2 22,11.6 L22.5,11.1 C22,10.6 21.4,10.3 20.6,10.3 L20.6,9.4 L20,9.4 L20,10.2 C18.9,10.3 18,11 18,11.9 C18,13 19,13.4 20,13.6 L20,15.9 C19.3,15.8 18.6,15.4 18.3,15 L17.8,15.6 C18.3,16.1 19,16.5 20,16.6 L20,17.4 L20.6,17.4 L20.6,16.6 C22.1,16.5 22.7,15.6 22.7,14.8 C22.6,13.5 21.6,13.2 20.6,12.9 L20.6,12.9 Z M20,12.7 C19.3,12.5 18.8,12.3 18.8,11.7 C18.8,11.2 19.3,10.8 20,10.7 L20,12.7 L20,12.7 Z M20.6,15.8 L20.6,13.7 C21.3,13.9 21.8,14.2 21.8,14.7 C21.8,15.2 21.5,15.7 20.6,15.8 L20.6,15.8 Z" id="Shape" sketch:type="MSShapeGroup"></path>
            </g>
        </g>
    </g>
</svg>